<svg width="30" height="30" viewBox="0 0 30 30" fill="none" xmlns="http://www.w3.org/2000/svg">
<path fill-rule="evenodd" clip-rule="evenodd" d="M15 27C21.6274 27 27 21.6274 27 15C27 8.37258 21.6274 3 15 3C8.37258 3 3 8.37258 3 15C3 21.6274 8.37258 27 15 27ZM15 28C22.1797 28 28 22.1797 28 15C28 7.8203 22.1797 2 15 2C7.8203 2 2 7.8203 2 15C2 22.1797 7.8203 28 15 28Z" fill="#202020"/>
<path fill-rule="evenodd" clip-rule="evenodd" d="M15 6.5C15.2761 6.5 15.5 6.72386 15.5 7V14.5H23C23.2761 14.5 23.5 14.7239 23.5 15C23.5 15.2761 23.2761 15.5 23 15.5H15.5V22.5C15.5 22.7761 15.2761 23 15 23C14.7239 23 14.5 22.7761 14.5 22.5V15.5H7C6.72386 15.5 6.5 15.2761 6.5 15C6.5 14.7239 6.72386 14.5 7 14.5H14.5V7C14.5 6.72386 14.7239 6.5 15 6.5Z" fill="#202020"/>
</svg>
