<svg width="23" height="24" viewBox="0 0 23 24" fill="none" xmlns="http://www.w3.org/2000/svg">
<path d="M0 5C0 2.23858 2.23858 0 5 0H18C20.7614 0 23 2.23858 23 5V19C23 21.7614 20.7614 24 18 24H5C2.23858 24 0 21.7614 0 19V5Z" fill="white"/>
<path d="M13.3904 6.81235C13.5629 6.59672 13.528 6.28207 13.3123 6.10957C13.0967 5.93706 12.7821 5.97202 12.6096 6.18765L13.3904 6.81235ZM9 11.5L8.60957 11.1877L8.35969 11.5L8.60957 11.8123L9 11.5ZM12.6096 16.8123C12.7821 17.028 13.0967 17.0629 13.3123 16.8904C13.528 16.7179 13.5629 16.4033 13.3904 16.1877L12.6096 16.8123ZM12.6096 6.18765L8.60957 11.1877L9.39043 11.8123L13.3904 6.81235L12.6096 6.18765ZM8.60957 11.8123L12.6096 16.8123L13.3904 16.1877L9.39043 11.1877L8.60957 11.8123Z" fill="#888888"/>
</svg>
