<svg width="23" height="24" viewBox="0 0 23 24" fill="none" xmlns="http://www.w3.org/2000/svg">
<path d="M0 5C0 2.23858 2.23858 0 5 0H18C20.7614 0 23 2.23858 23 5V19C23 21.7614 20.7614 24 18 24H5C2.23858 24 0 21.7614 0 19V5Z" fill="#888888"/>
<path d="M9.60957 16.1877C9.43706 16.4033 9.47202 16.7179 9.68765 16.8904C9.90328 17.0629 10.2179 17.028 10.3904 16.8123L9.60957 16.1877ZM14 11.5L14.3904 11.8123L14.6403 11.5L14.3904 11.1877L14 11.5ZM10.3904 6.18765C10.2179 5.97202 9.90328 5.93706 9.68765 6.10957C9.47202 6.28207 9.43706 6.59672 9.60957 6.81235L10.3904 6.18765ZM10.3904 16.8123L14.3904 11.8123L13.6096 11.1877L9.60957 16.1877L10.3904 16.8123ZM14.3904 11.1877L10.3904 6.18765L9.60957 6.81235L13.6096 11.8123L14.3904 11.1877Z" fill="white"/>
</svg>
